<?xml version="1.0" standalone="no"?>
<!DOCTYPE svg PUBLIC "-//W3C//DTD SVG 20010904//EN"
 "http://www.w3.org/TR/2001/REC-SVG-20010904/DTD/svg10.dtd">
<svg version="1.0" xmlns="http://www.w3.org/2000/svg"
 width="1150.000000pt" height="1150.000000pt" viewBox="0 0 1150.000000 1150.000000"
 preserveAspectRatio="xMidYMid meet">
<metadata>
Created by potrace 1.14, written by Peter Selinger 2001-2017
</metadata>
<g transform="translate(0.000000,1150.000000) scale(0.100000,-0.100000)"
fill="#000000" stroke="none">
<path d="M1785 11389 c-629 -66 -1192 -462 -1477 -1036 -56 -115 -68 -143
-100 -238 -43 -131 -71 -258 -86 -395 -9 -87 -9 -7837 0 -7920 5 -36 10 -74
12 -85 2 -11 7 -40 11 -65 33 -207 147 -489 277 -685 310 -466 814 -775 1358
-833 89 -10 7870 -9 7945 1 90 11 124 17 190 33 33 8 69 17 79 19 35 8 180 57
226 77 65 27 218 105 268 136 154 96 358 274 457 397 22 28 43 52 46 55 22 18
157 239 202 332 76 154 139 351 161 501 3 20 8 52 11 70 3 17 7 57 10 87 6 63
7 7790 1 7835 -2 17 -7 57 -11 90 -69 605 -485 1180 -1045 1447 -162 77 -372
144 -515 164 -27 3 -59 9 -70 13 -31 9 -7860 9 -7950 0z"/>
</g>
</svg>
